<mxfile host="Electron" modified="2024-12-19T00:42:16.466Z" agent="Mozilla/5.0 (Windows NT 10.0; Win64; x64) AppleWebKit/537.36 (KHTML, like Gecko) draw.io/22.0.3 Chrome/114.0.5735.289 Electron/25.8.4 Safari/537.36" etag="vcDF1yE8m5w5z40E2Rfk" version="22.0.3" type="device" pages="3">
  <diagram name="第 1 页" id="Sr9142X3LStY4y-dhj3H">
    <mxGraphModel dx="1418" dy="820" grid="1" gridSize="10" guides="1" tooltips="1" connect="1" arrows="1" fold="1" page="1" pageScale="1" pageWidth="1169" pageHeight="827" math="0" shadow="0">
      <root>
        <mxCell id="0" />
        <mxCell id="1" parent="0" />
        <mxCell id="TJ9k1p4IMwUkzYrKePp2-18" style="edgeStyle=orthogonalEdgeStyle;rounded=0;orthogonalLoop=1;jettySize=auto;html=1;entryX=0.5;entryY=0;entryDx=0;entryDy=0;" parent="1" source="TJ9k1p4IMwUkzYrKePp2-2" target="TJ9k1p4IMwUkzYrKePp2-7" edge="1">
          <mxGeometry relative="1" as="geometry" />
        </mxCell>
        <mxCell id="TJ9k1p4IMwUkzYrKePp2-2" value="&lt;span style=&quot;font-size: 20px;&quot;&gt;BasicBlocks&lt;/span&gt;" style="rounded=0;whiteSpace=wrap;html=1;" parent="1" vertex="1">
          <mxGeometry x="300" y="400" width="120" height="40" as="geometry" />
        </mxCell>
        <mxCell id="TJ9k1p4IMwUkzYrKePp2-14" style="edgeStyle=orthogonalEdgeStyle;rounded=0;orthogonalLoop=1;jettySize=auto;html=1;entryX=0.5;entryY=0;entryDx=0;entryDy=0;" parent="1" source="TJ9k1p4IMwUkzYrKePp2-4" target="TJ9k1p4IMwUkzYrKePp2-2" edge="1">
          <mxGeometry relative="1" as="geometry" />
        </mxCell>
        <mxCell id="TJ9k1p4IMwUkzYrKePp2-15" style="edgeStyle=orthogonalEdgeStyle;rounded=0;orthogonalLoop=1;jettySize=auto;html=1;entryX=0.5;entryY=0;entryDx=0;entryDy=0;" parent="1" source="TJ9k1p4IMwUkzYrKePp2-4" target="TJ9k1p4IMwUkzYrKePp2-5" edge="1">
          <mxGeometry relative="1" as="geometry" />
        </mxCell>
        <mxCell id="TJ9k1p4IMwUkzYrKePp2-4" value="&lt;font style=&quot;font-size: 20px;&quot;&gt;Functions&lt;/font&gt;" style="rounded=0;whiteSpace=wrap;html=1;" parent="1" vertex="1">
          <mxGeometry x="370" y="320" width="120" height="40" as="geometry" />
        </mxCell>
        <mxCell id="TJ9k1p4IMwUkzYrKePp2-5" value="&lt;span style=&quot;font-size: 20px;&quot;&gt;Parameters&lt;/span&gt;" style="rounded=0;whiteSpace=wrap;html=1;" parent="1" vertex="1">
          <mxGeometry x="440" y="400" width="120" height="40" as="geometry" />
        </mxCell>
        <mxCell id="TJ9k1p4IMwUkzYrKePp2-12" style="edgeStyle=orthogonalEdgeStyle;rounded=0;orthogonalLoop=1;jettySize=auto;html=1;entryX=0.5;entryY=0;entryDx=0;entryDy=0;exitX=0.5;exitY=1;exitDx=0;exitDy=0;" parent="1" source="TJ9k1p4IMwUkzYrKePp2-6" target="TJ9k1p4IMwUkzYrKePp2-4" edge="1">
          <mxGeometry relative="1" as="geometry" />
        </mxCell>
        <mxCell id="TJ9k1p4IMwUkzYrKePp2-13" style="edgeStyle=orthogonalEdgeStyle;rounded=0;orthogonalLoop=1;jettySize=auto;html=1;entryX=0.5;entryY=0;entryDx=0;entryDy=0;exitX=0.5;exitY=1;exitDx=0;exitDy=0;" parent="1" source="TJ9k1p4IMwUkzYrKePp2-6" target="TJ9k1p4IMwUkzYrKePp2-8" edge="1">
          <mxGeometry relative="1" as="geometry" />
        </mxCell>
        <mxCell id="Z6cDOGW3Pb5jNc64ZQug-2" style="edgeStyle=orthogonalEdgeStyle;rounded=0;orthogonalLoop=1;jettySize=auto;html=1;entryX=0.5;entryY=0;entryDx=0;entryDy=0;" parent="1" source="TJ9k1p4IMwUkzYrKePp2-6" target="Z6cDOGW3Pb5jNc64ZQug-1" edge="1">
          <mxGeometry relative="1" as="geometry" />
        </mxCell>
        <mxCell id="TJ9k1p4IMwUkzYrKePp2-6" value="&lt;font style=&quot;font-size: 20px;&quot;&gt;Module&lt;br&gt;&lt;/font&gt;" style="rounded=0;whiteSpace=wrap;html=1;" parent="1" vertex="1">
          <mxGeometry x="520" y="240" width="120" height="40" as="geometry" />
        </mxCell>
        <mxCell id="TJ9k1p4IMwUkzYrKePp2-7" value="&lt;span style=&quot;font-size: 20px;&quot;&gt;Instructions&lt;/span&gt;" style="rounded=0;whiteSpace=wrap;html=1;" parent="1" vertex="1">
          <mxGeometry x="300" y="480" width="120" height="40" as="geometry" />
        </mxCell>
        <mxCell id="TJ9k1p4IMwUkzYrKePp2-16" style="edgeStyle=orthogonalEdgeStyle;rounded=0;orthogonalLoop=1;jettySize=auto;html=1;entryX=0.5;entryY=0;entryDx=0;entryDy=0;" parent="1" source="TJ9k1p4IMwUkzYrKePp2-8" target="TJ9k1p4IMwUkzYrKePp2-9" edge="1">
          <mxGeometry relative="1" as="geometry" />
        </mxCell>
        <mxCell id="TJ9k1p4IMwUkzYrKePp2-17" style="edgeStyle=orthogonalEdgeStyle;rounded=0;orthogonalLoop=1;jettySize=auto;html=1;entryX=0.5;entryY=0;entryDx=0;entryDy=0;" parent="1" source="TJ9k1p4IMwUkzYrKePp2-8" target="TJ9k1p4IMwUkzYrKePp2-10" edge="1">
          <mxGeometry relative="1" as="geometry" />
        </mxCell>
        <mxCell id="TJ9k1p4IMwUkzYrKePp2-8" value="GlobalValues" style="rounded=0;whiteSpace=wrap;html=1;fontSize=20;" parent="1" vertex="1">
          <mxGeometry x="670" y="320" width="120" height="40" as="geometry" />
        </mxCell>
        <mxCell id="TJ9k1p4IMwUkzYrKePp2-9" value="GlobalStrings" style="rounded=0;whiteSpace=wrap;html=1;fontSize=18;" parent="1" vertex="1">
          <mxGeometry x="600" y="400" width="120" height="40" as="geometry" />
        </mxCell>
        <mxCell id="TJ9k1p4IMwUkzYrKePp2-10" value="GlobalVariables" style="rounded=0;whiteSpace=wrap;html=1;fontSize=16;" parent="1" vertex="1">
          <mxGeometry x="740" y="400" width="120" height="40" as="geometry" />
        </mxCell>
        <mxCell id="Z6cDOGW3Pb5jNc64ZQug-1" value="LLVMContext" style="rounded=0;whiteSpace=wrap;html=1;fontSize=20;" parent="1" vertex="1">
          <mxGeometry x="520" y="320" width="120" height="40" as="geometry" />
        </mxCell>
      </root>
    </mxGraphModel>
  </diagram>
  <diagram id="BoJDzj6akdDJLtKLaEfz" name="第 2 页">
    <mxGraphModel dx="1418" dy="820" grid="1" gridSize="10" guides="1" tooltips="1" connect="1" arrows="1" fold="1" page="1" pageScale="1" pageWidth="1169" pageHeight="827" math="0" shadow="0">
      <root>
        <mxCell id="0" />
        <mxCell id="1" parent="0" />
        <mxCell id="jOl3m3sTWKPq15Tyim1j-32" style="edgeStyle=orthogonalEdgeStyle;rounded=0;orthogonalLoop=1;jettySize=auto;html=1;entryX=0.5;entryY=0;entryDx=0;entryDy=0;" parent="1" source="jOl3m3sTWKPq15Tyim1j-24" target="jOl3m3sTWKPq15Tyim1j-25" edge="1">
          <mxGeometry relative="1" as="geometry" />
        </mxCell>
        <mxCell id="jOl3m3sTWKPq15Tyim1j-42" style="edgeStyle=orthogonalEdgeStyle;rounded=0;orthogonalLoop=1;jettySize=auto;html=1;entryX=0.5;entryY=0;entryDx=0;entryDy=0;exitX=0.5;exitY=1;exitDx=0;exitDy=0;" parent="1" source="jOl3m3sTWKPq15Tyim1j-24" target="jOl3m3sTWKPq15Tyim1j-41" edge="1">
          <mxGeometry relative="1" as="geometry" />
        </mxCell>
        <mxCell id="jOl3m3sTWKPq15Tyim1j-43" style="edgeStyle=orthogonalEdgeStyle;rounded=0;orthogonalLoop=1;jettySize=auto;html=1;entryX=0.5;entryY=0;entryDx=0;entryDy=0;exitX=0.5;exitY=1;exitDx=0;exitDy=0;" parent="1" source="jOl3m3sTWKPq15Tyim1j-24" target="jOl3m3sTWKPq15Tyim1j-26" edge="1">
          <mxGeometry relative="1" as="geometry" />
        </mxCell>
        <mxCell id="jOl3m3sTWKPq15Tyim1j-24" value="&lt;font style=&quot;font-size: 16px;&quot;&gt;Value&lt;/font&gt;" style="rounded=1;whiteSpace=wrap;html=1;fontSize=16;" parent="1" vertex="1">
          <mxGeometry x="440" y="240" width="80" height="40" as="geometry" />
        </mxCell>
        <mxCell id="jOl3m3sTWKPq15Tyim1j-34" style="edgeStyle=orthogonalEdgeStyle;rounded=0;orthogonalLoop=1;jettySize=auto;html=1;entryX=0.5;entryY=0;entryDx=0;entryDy=0;exitX=0.5;exitY=1;exitDx=0;exitDy=0;" parent="1" source="jOl3m3sTWKPq15Tyim1j-25" target="jOl3m3sTWKPq15Tyim1j-28" edge="1">
          <mxGeometry relative="1" as="geometry" />
        </mxCell>
        <mxCell id="jOl3m3sTWKPq15Tyim1j-35" style="edgeStyle=orthogonalEdgeStyle;rounded=0;orthogonalLoop=1;jettySize=auto;html=1;entryX=0.5;entryY=0;entryDx=0;entryDy=0;exitX=0.5;exitY=1;exitDx=0;exitDy=0;" parent="1" source="jOl3m3sTWKPq15Tyim1j-25" target="jOl3m3sTWKPq15Tyim1j-29" edge="1">
          <mxGeometry relative="1" as="geometry" />
        </mxCell>
        <mxCell id="jOl3m3sTWKPq15Tyim1j-44" style="edgeStyle=orthogonalEdgeStyle;rounded=0;orthogonalLoop=1;jettySize=auto;html=1;entryX=0.5;entryY=0;entryDx=0;entryDy=0;exitX=0.5;exitY=1;exitDx=0;exitDy=0;" parent="1" source="jOl3m3sTWKPq15Tyim1j-25" target="jOl3m3sTWKPq15Tyim1j-27" edge="1">
          <mxGeometry relative="1" as="geometry" />
        </mxCell>
        <mxCell id="jOl3m3sTWKPq15Tyim1j-25" value="&lt;font style=&quot;font-size: 16px;&quot;&gt;User&lt;/font&gt;" style="rounded=1;whiteSpace=wrap;html=1;fontSize=16;" parent="1" vertex="1">
          <mxGeometry x="440" y="320" width="80" height="40" as="geometry" />
        </mxCell>
        <mxCell id="jOl3m3sTWKPq15Tyim1j-26" value="&lt;font style=&quot;font-size: 16px;&quot;&gt;BasicBlock&lt;/font&gt;" style="rounded=1;whiteSpace=wrap;html=1;" parent="1" vertex="1">
          <mxGeometry x="340" y="320" width="80" height="40" as="geometry" />
        </mxCell>
        <mxCell id="jOl3m3sTWKPq15Tyim1j-27" value="&lt;font style=&quot;font-size: 16px;&quot;&gt;Instruction&lt;/font&gt;" style="rounded=1;whiteSpace=wrap;html=1;" parent="1" vertex="1">
          <mxGeometry x="340" y="400" width="80" height="40" as="geometry" />
        </mxCell>
        <mxCell id="jOl3m3sTWKPq15Tyim1j-28" value="&lt;font style=&quot;font-size: 16px;&quot;&gt;BasicBlock&lt;/font&gt;" style="rounded=1;whiteSpace=wrap;html=1;" parent="1" vertex="1">
          <mxGeometry x="540" y="400" width="80" height="40" as="geometry" />
        </mxCell>
        <mxCell id="jOl3m3sTWKPq15Tyim1j-31" style="edgeStyle=orthogonalEdgeStyle;rounded=0;orthogonalLoop=1;jettySize=auto;html=1;entryX=0.5;entryY=0;entryDx=0;entryDy=0;exitX=0.5;exitY=1;exitDx=0;exitDy=0;" parent="1" source="jOl3m3sTWKPq15Tyim1j-29" target="jOl3m3sTWKPq15Tyim1j-30" edge="1">
          <mxGeometry relative="1" as="geometry" />
        </mxCell>
        <mxCell id="jOl3m3sTWKPq15Tyim1j-37" style="edgeStyle=orthogonalEdgeStyle;rounded=0;orthogonalLoop=1;jettySize=auto;html=1;entryX=0.5;entryY=0;entryDx=0;entryDy=0;exitX=0.5;exitY=1;exitDx=0;exitDy=0;" parent="1" source="jOl3m3sTWKPq15Tyim1j-29" target="jOl3m3sTWKPq15Tyim1j-36" edge="1">
          <mxGeometry relative="1" as="geometry" />
        </mxCell>
        <mxCell id="jOl3m3sTWKPq15Tyim1j-29" value="&lt;font style=&quot;font-size: 16px;&quot;&gt;Constant&lt;/font&gt;" style="rounded=1;whiteSpace=wrap;html=1;" parent="1" vertex="1">
          <mxGeometry x="440" y="400" width="80" height="40" as="geometry" />
        </mxCell>
        <mxCell id="jOl3m3sTWKPq15Tyim1j-30" value="&lt;span style=&quot;font-size: 13px;&quot;&gt;ConstantData&lt;br style=&quot;font-size: 13px;&quot;&gt;&lt;/span&gt;" style="rounded=1;whiteSpace=wrap;html=1;fontSize=13;" parent="1" vertex="1">
          <mxGeometry x="390" y="480" width="80" height="40" as="geometry" />
        </mxCell>
        <mxCell id="jOl3m3sTWKPq15Tyim1j-39" style="edgeStyle=orthogonalEdgeStyle;rounded=0;orthogonalLoop=1;jettySize=auto;html=1;entryX=0.5;entryY=0;entryDx=0;entryDy=0;" parent="1" source="jOl3m3sTWKPq15Tyim1j-36" target="jOl3m3sTWKPq15Tyim1j-38" edge="1">
          <mxGeometry relative="1" as="geometry" />
        </mxCell>
        <mxCell id="jOl3m3sTWKPq15Tyim1j-47" style="edgeStyle=orthogonalEdgeStyle;rounded=0;orthogonalLoop=1;jettySize=auto;html=1;entryX=0.5;entryY=0;entryDx=0;entryDy=0;" parent="1" source="jOl3m3sTWKPq15Tyim1j-36" target="jOl3m3sTWKPq15Tyim1j-40" edge="1">
          <mxGeometry relative="1" as="geometry" />
        </mxCell>
        <mxCell id="jOl3m3sTWKPq15Tyim1j-36" value="&lt;font style=&quot;font-size: 14px;&quot;&gt;GlobalValue&lt;/font&gt;" style="rounded=1;whiteSpace=wrap;html=1;fontSize=14;" parent="1" vertex="1">
          <mxGeometry x="490" y="480" width="80" height="40" as="geometry" />
        </mxCell>
        <mxCell id="jOl3m3sTWKPq15Tyim1j-38" value="&lt;font style=&quot;font-size: 12px;&quot;&gt;GlobalVariable&lt;/font&gt;" style="rounded=1;whiteSpace=wrap;html=1;fontSize=12;" parent="1" vertex="1">
          <mxGeometry x="440" y="560" width="80" height="40" as="geometry" />
        </mxCell>
        <mxCell id="jOl3m3sTWKPq15Tyim1j-40" value="&lt;font style=&quot;font-size: 14px;&quot;&gt;GlobalString&lt;/font&gt;" style="rounded=1;whiteSpace=wrap;html=1;fontSize=14;" parent="1" vertex="1">
          <mxGeometry x="540" y="560" width="80" height="40" as="geometry" />
        </mxCell>
        <mxCell id="jOl3m3sTWKPq15Tyim1j-41" value="&lt;font style=&quot;font-size: 16px;&quot;&gt;Argument&lt;/font&gt;" style="rounded=1;whiteSpace=wrap;html=1;" parent="1" vertex="1">
          <mxGeometry x="540" y="320" width="80" height="40" as="geometry" />
        </mxCell>
      </root>
    </mxGraphModel>
  </diagram>
  <diagram id="-tPWmVSKZLCxe7I0hIfh" name="第 3 页">
    <mxGraphModel dx="315" dy="182" grid="1" gridSize="10" guides="1" tooltips="1" connect="1" arrows="1" fold="1" page="1" pageScale="1" pageWidth="1169" pageHeight="827" math="0" shadow="0">
      <root>
        <mxCell id="0" />
        <mxCell id="1" parent="0" />
        <mxCell id="ONe4tAzicnxW9Z_RH_Gy-19" value="" style="shape=process;whiteSpace=wrap;html=1;backgroundOutline=1;fillColor=#d5e8d4;size=0.015384615384615385;movable=1;resizable=1;rotatable=1;deletable=1;editable=1;locked=0;connectable=1;strokeColor=#82b366;" vertex="1" parent="1">
          <mxGeometry x="170" y="230" width="650" height="170" as="geometry" />
        </mxCell>
        <mxCell id="ONe4tAzicnxW9Z_RH_Gy-1" value="" style="rounded=1;whiteSpace=wrap;html=1;movable=1;resizable=1;rotatable=1;deletable=1;editable=1;locked=0;connectable=1;fillColor=#fff2cc;strokeColor=#d6b656;" vertex="1" parent="1">
          <mxGeometry x="190" y="290" width="290" height="100" as="geometry" />
        </mxCell>
        <mxCell id="ONe4tAzicnxW9Z_RH_Gy-21" style="edgeStyle=orthogonalEdgeStyle;rounded=0;orthogonalLoop=1;jettySize=auto;html=1;entryX=0;entryY=0.5;entryDx=0;entryDy=0;exitX=0.5;exitY=0;exitDx=0;exitDy=0;" edge="1" parent="1" source="ONe4tAzicnxW9Z_RH_Gy-2" target="ONe4tAzicnxW9Z_RH_Gy-17">
          <mxGeometry relative="1" as="geometry" />
        </mxCell>
        <mxCell id="ONe4tAzicnxW9Z_RH_Gy-2" value="&lt;font style=&quot;font-size: 16px;&quot;&gt;Lexer&lt;/font&gt;" style="rounded=0;whiteSpace=wrap;html=1;fillColor=#dae8fc;strokeColor=#6c8ebf;" vertex="1" parent="1">
          <mxGeometry x="200" y="310" width="80" height="60" as="geometry" />
        </mxCell>
        <mxCell id="ONe4tAzicnxW9Z_RH_Gy-4" value="readNextToken()" style="edgeStyle=orthogonalEdgeStyle;rounded=0;orthogonalLoop=1;jettySize=auto;html=1;entryX=1;entryY=0.75;entryDx=0;entryDy=0;exitX=0;exitY=0.75;exitDx=0;exitDy=0;labelBackgroundColor=#fff2cc;fontSize=12;" edge="1" parent="1" source="ONe4tAzicnxW9Z_RH_Gy-3" target="ONe4tAzicnxW9Z_RH_Gy-2">
          <mxGeometry relative="1" as="geometry" />
        </mxCell>
        <mxCell id="ONe4tAzicnxW9Z_RH_Gy-7" value="" style="rounded=1;whiteSpace=wrap;html=1;fillColor=#fff2cc;strokeColor=#d6b656;" vertex="1" parent="1">
          <mxGeometry x="510" y="290" width="120" height="100" as="geometry" />
        </mxCell>
        <mxCell id="ONe4tAzicnxW9Z_RH_Gy-6" value="AST" style="edgeStyle=orthogonalEdgeStyle;rounded=0;orthogonalLoop=1;jettySize=auto;html=1;entryX=0;entryY=0.5;entryDx=0;entryDy=0;labelBackgroundColor=#d5e8d4;fontSize=12;" edge="1" parent="1" source="ONe4tAzicnxW9Z_RH_Gy-3" target="ONe4tAzicnxW9Z_RH_Gy-8">
          <mxGeometry relative="1" as="geometry">
            <mxPoint x="550" y="340" as="targetPoint" />
          </mxGeometry>
        </mxCell>
        <mxCell id="ONe4tAzicnxW9Z_RH_Gy-20" style="edgeStyle=orthogonalEdgeStyle;rounded=0;orthogonalLoop=1;jettySize=auto;html=1;entryX=0.5;entryY=1;entryDx=0;entryDy=0;" edge="1" parent="1" source="ONe4tAzicnxW9Z_RH_Gy-3" target="ONe4tAzicnxW9Z_RH_Gy-17">
          <mxGeometry relative="1" as="geometry" />
        </mxCell>
        <mxCell id="ONe4tAzicnxW9Z_RH_Gy-3" value="&lt;font style=&quot;font-size: 16px;&quot;&gt;Parser&lt;/font&gt;" style="rounded=0;whiteSpace=wrap;html=1;fillColor=#dae8fc;strokeColor=#6c8ebf;" vertex="1" parent="1">
          <mxGeometry x="390" y="310" width="80" height="60" as="geometry" />
        </mxCell>
        <mxCell id="ONe4tAzicnxW9Z_RH_Gy-5" value="Token" style="edgeStyle=orthogonalEdgeStyle;orthogonalLoop=1;jettySize=auto;html=1;rounded=0;exitX=1;exitY=0.25;exitDx=0;exitDy=0;entryX=0;entryY=0.25;entryDx=0;entryDy=0;labelBackgroundColor=#fff2cc;fontSize=12;" edge="1" parent="1" source="ONe4tAzicnxW9Z_RH_Gy-2" target="ONe4tAzicnxW9Z_RH_Gy-3">
          <mxGeometry width="80" relative="1" as="geometry">
            <mxPoint x="265" y="340" as="sourcePoint" />
            <mxPoint x="375" y="400" as="targetPoint" />
          </mxGeometry>
        </mxCell>
        <mxCell id="ONe4tAzicnxW9Z_RH_Gy-8" value="" style="rounded=0;whiteSpace=wrap;html=1;fillColor=#dae8fc;strokeColor=#6c8ebf;" vertex="1" parent="1">
          <mxGeometry x="520" y="300" width="100" height="80" as="geometry" />
        </mxCell>
        <mxCell id="ONe4tAzicnxW9Z_RH_Gy-16" style="edgeStyle=orthogonalEdgeStyle;rounded=0;orthogonalLoop=1;jettySize=auto;html=1;exitX=1;exitY=0.5;exitDx=0;exitDy=0;entryX=1;entryY=0.5;entryDx=0;entryDy=0;" edge="1" parent="1" source="ONe4tAzicnxW9Z_RH_Gy-12" target="ONe4tAzicnxW9Z_RH_Gy-17">
          <mxGeometry relative="1" as="geometry">
            <mxPoint x="650" y="237.41935483870967" as="targetPoint" />
            <Array as="points">
              <mxPoint x="640" y="325" />
              <mxPoint x="640" y="260" />
            </Array>
          </mxGeometry>
        </mxCell>
        <mxCell id="ONe4tAzicnxW9Z_RH_Gy-12" value="&lt;font style=&quot;font-size: 10px;&quot;&gt;visitor.cpp&lt;/font&gt;" style="whiteSpace=wrap;html=1;" vertex="1" parent="1">
          <mxGeometry x="530" y="320" width="80" height="10" as="geometry" />
        </mxCell>
        <mxCell id="ONe4tAzicnxW9Z_RH_Gy-13" value="&lt;font style=&quot;font-size: 10px;&quot;&gt;llvmVisitor.cpp&lt;/font&gt;" style="whiteSpace=wrap;html=1;" vertex="1" parent="1">
          <mxGeometry x="530" y="340" width="80" height="10" as="geometry" />
        </mxCell>
        <mxCell id="ONe4tAzicnxW9Z_RH_Gy-14" value="&lt;font style=&quot;font-size: 10px;&quot;&gt;evaluate.cpp&lt;/font&gt;" style="whiteSpace=wrap;html=1;" vertex="1" parent="1">
          <mxGeometry x="530" y="360" width="80" height="10" as="geometry" />
        </mxCell>
        <mxCell id="ONe4tAzicnxW9Z_RH_Gy-15" value="&lt;font style=&quot;font-size: 16px;&quot;&gt;Visitor&lt;/font&gt;" style="text;strokeColor=none;align=center;fillColor=none;html=1;verticalAlign=middle;whiteSpace=wrap;rounded=0;" vertex="1" parent="1">
          <mxGeometry x="525" y="300" width="40" height="20" as="geometry" />
        </mxCell>
        <mxCell id="ONe4tAzicnxW9Z_RH_Gy-17" value="&lt;span style=&quot;font-size: 16px;&quot;&gt;ErrorReporter&lt;/span&gt;" style="rounded=0;whiteSpace=wrap;html=1;fillColor=#f8cecc;strokeColor=#b85450;" vertex="1" parent="1">
          <mxGeometry x="370" y="240" width="120" height="40" as="geometry" />
        </mxCell>
        <mxCell id="ONe4tAzicnxW9Z_RH_Gy-24" value="" style="rounded=1;whiteSpace=wrap;html=1;fillColor=#fff2cc;strokeColor=#d6b656;" vertex="1" parent="1">
          <mxGeometry x="720" y="290" width="80" height="100" as="geometry" />
        </mxCell>
        <mxCell id="ONe4tAzicnxW9Z_RH_Gy-35" value="" style="endArrow=none;html=1;rounded=0;exitX=1;exitY=0.5;exitDx=0;exitDy=0;movable=1;resizable=1;rotatable=1;deletable=1;editable=1;locked=0;connectable=1;" edge="1" parent="1" source="ONe4tAzicnxW9Z_RH_Gy-14">
          <mxGeometry width="50" height="50" relative="1" as="geometry">
            <mxPoint x="640" y="370" as="sourcePoint" />
            <mxPoint x="640" y="325" as="targetPoint" />
            <Array as="points">
              <mxPoint x="640" y="365" />
            </Array>
          </mxGeometry>
        </mxCell>
        <mxCell id="ONe4tAzicnxW9Z_RH_Gy-36" value="" style="endArrow=none;html=1;rounded=0;exitX=1;exitY=0.5;exitDx=0;exitDy=0;movable=1;resizable=1;rotatable=1;deletable=1;editable=1;locked=0;connectable=1;" edge="1" parent="1" source="ONe4tAzicnxW9Z_RH_Gy-13">
          <mxGeometry width="50" height="50" relative="1" as="geometry">
            <mxPoint x="620" y="375" as="sourcePoint" />
            <mxPoint x="640" y="345" as="targetPoint" />
            <Array as="points" />
          </mxGeometry>
        </mxCell>
        <mxCell id="ONe4tAzicnxW9Z_RH_Gy-37" value="" style="endArrow=none;html=1;rounded=0;exitX=1;exitY=0.5;exitDx=0;exitDy=0;movable=1;resizable=1;rotatable=1;deletable=1;editable=1;locked=0;connectable=1;" edge="1" parent="1">
          <mxGeometry width="50" height="50" relative="1" as="geometry">
            <mxPoint x="610" y="324.94" as="sourcePoint" />
            <mxPoint x="640" y="325" as="targetPoint" />
            <Array as="points" />
          </mxGeometry>
        </mxCell>
        <mxCell id="ONe4tAzicnxW9Z_RH_Gy-38" value="llvm::Module" style="edgeStyle=none;orthogonalLoop=1;jettySize=auto;html=1;rounded=0;entryX=0;entryY=0.5;entryDx=0;entryDy=0;labelBackgroundColor=#d5e8d4;fontSize=12;" edge="1" parent="1" target="ONe4tAzicnxW9Z_RH_Gy-39">
          <mxGeometry width="80" relative="1" as="geometry">
            <mxPoint x="640" y="340" as="sourcePoint" />
            <mxPoint x="800" y="330" as="targetPoint" />
            <Array as="points" />
          </mxGeometry>
        </mxCell>
        <mxCell id="ONe4tAzicnxW9Z_RH_Gy-39" value="&lt;font style=&quot;font-size: 14px;&quot;&gt;IRPrinter&lt;/font&gt;" style="rounded=0;whiteSpace=wrap;html=1;fillColor=#dae8fc;strokeColor=#6c8ebf;" vertex="1" parent="1">
          <mxGeometry x="730" y="300" width="60" height="80" as="geometry" />
        </mxCell>
      </root>
    </mxGraphModel>
  </diagram>
</mxfile>
